<svg width="15" height="20" viewBox="0 0 15 20" fill="none" xmlns="http://www.w3.org/2000/svg">
<path d="M0.5673 16.8846C0.406566 16.8846 0.271833 16.8297 0.1631 16.7201C0.0543663 16.6104 0 16.4745 0 16.3124C0 16.1503 0.0543663 16.016 0.1631 15.9096C0.271833 15.8032 0.406566 15.75 0.5673 15.75H1.8077V7.8519C1.8077 6.49789 2.21859 5.29048 3.04037 4.22968C3.86217 3.16886 4.93205 2.51121 6.25 2.25673V1.75C6.25 1.40278 6.37142 1.10765 6.61425 0.864601C6.85708 0.621534 7.15195 0.5 7.49885 0.5C7.84575 0.5 8.14099 0.621534 8.38457 0.864601C8.62816 1.10765 8.74995 1.40278 8.74995 1.75V2.25673C10.0679 2.51121 11.1378 3.16886 11.9596 4.22968C12.7814 5.29048 13.1922 6.49789 13.1922 7.8519V15.75H14.4327C14.5934 15.75 14.7281 15.8048 14.8369 15.9145C14.9456 16.0242 15 16.1601 15 16.3222C15 16.4843 14.9456 16.6186 14.8369 16.725C14.7281 16.8314 14.5934 16.8846 14.4327 16.8846H0.5673ZM7.49828 19.6923C7.00069 19.6923 6.5753 19.5153 6.2221 19.1613C5.8689 18.8073 5.6923 18.3817 5.6923 17.8846H9.30765C9.30765 18.3833 9.13048 18.8093 8.77615 19.1625C8.42182 19.5157 7.99586 19.6923 7.49828 19.6923ZM2.94227 15.75H12.0577V7.8519C12.0577 6.58907 11.6138 5.51374 10.726 4.62593C9.83812 3.73811 8.76279 3.2942 7.49997 3.2942C6.23716 3.2942 5.16183 3.73811 4.274 4.62593C3.38618 5.51374 2.94227 6.58907 2.94227 7.8519V15.75Z" fill="#101010" fill-opacity="0.5"/>
</svg>
