<svg width="24" height="24" viewBox="0 0 24 24" fill="none" xmlns="http://www.w3.org/2000/svg">
<path d="M5.63881 12.9114C5.38718 12.9114 5.17293 12.8219 4.99608 12.6428C4.81925 12.4637 4.73083 12.2484 4.73083 11.9969C4.73083 11.7454 4.82039 11.5311 4.99949 11.354C5.17859 11.1769 5.39388 11.0884 5.64538 11.0884C5.89689 11.0884 6.11278 11.1779 6.29306 11.357C6.47334 11.5361 6.56349 11.7514 6.56349 12.0029C6.56349 12.2544 6.47294 12.4687 6.29186 12.6458C6.11078 12.8229 5.89309 12.9114 5.63881 12.9114ZM11.997 12.9114C11.7455 12.9114 11.5312 12.8219 11.3541 12.6428C11.177 12.4637 11.0885 12.2484 11.0885 11.9969C11.0885 11.7454 11.178 11.5311 11.3571 11.354C11.5362 11.1769 11.7515 11.0884 12.003 11.0884C12.2545 11.0884 12.4688 11.1779 12.6459 11.357C12.823 11.5361 12.9115 11.7514 12.9115 12.0029C12.9115 12.2544 12.822 12.4687 12.6429 12.6458C12.4638 12.8229 12.2485 12.9114 11.997 12.9114ZM18.3546 12.9114C18.1031 12.9114 17.8872 12.8219 17.707 12.6428C17.5267 12.4637 17.4365 12.2484 17.4365 11.9969C17.4365 11.7454 17.5271 11.5311 17.7082 11.354C17.8892 11.1769 18.1069 11.0884 18.3612 11.0884C18.6128 11.0884 18.8271 11.1779 19.0039 11.357C19.1808 11.5361 19.2692 11.7514 19.2692 12.0029C19.2692 12.2544 19.1796 12.4687 19.0005 12.6458C18.8214 12.8229 18.6061 12.9114 18.3546 12.9114Z" fill="#101010"/>
</svg>
