<svg width="16" height="16" viewBox="0 0 16 16" fill="none" xmlns="http://www.w3.org/2000/svg">
<g clip-path="url(#clip0_146_1071)">
<path d="M8.00003 16C12.4183 16 16 12.4183 16 8C16 3.58172 12.4183 0 8.00003 0C3.58175 0 3.05176e-05 3.58172 3.05176e-05 8C3.05176e-05 12.4183 3.58175 16 8.00003 16Z" fill="#3C5A9A"/>
<path d="M10.6013 2.45557H8.82906C7.77738 2.45557 6.60761 2.89789 6.60761 4.42234C6.61275 4.95352 6.60761 5.46224 6.60761 6.03476H5.39096V7.97081H6.64526V13.5444H8.9501V7.93403H10.4714L10.609 6.02933H8.91039C8.91039 6.02933 8.91419 5.18203 8.91039 4.93597C8.91039 4.33354 9.53724 4.36804 9.57495 4.36804C9.87324 4.36804 10.4532 4.36891 10.6021 4.36804V2.45557H10.6013Z" fill="white"/>
</g>
<defs>
<clipPath id="clip0_146_1071">
<rect width="16" height="16" fill="white"/>
</clipPath>
</defs>
</svg>
