<svg width="16" height="16" viewBox="0 0 16 16" fill="none" xmlns="http://www.w3.org/2000/svg">
<g clip-path="url(#clip0_146_1078)">
<path d="M15.9916 8.1497C15.9916 7.49419 15.9371 7.01584 15.8193 6.51978H8.15936V9.47843H12.6556C12.565 10.2137 12.0755 11.321 10.9876 12.0651L10.9724 12.1641L13.3943 13.9976L13.5621 14.0139C15.1031 12.6232 15.9916 10.5769 15.9916 8.1497Z" fill="#4285F4"/>
<path d="M8.15934 15.945C10.3621 15.945 12.2114 15.2363 13.5621 14.0139L10.9876 12.065C10.2987 12.5345 9.37403 12.8623 8.15934 12.8623C6.00188 12.8623 4.17075 11.4716 3.51801 9.54932L3.42233 9.55726L0.903967 11.4618L0.871033 11.5513C2.21264 14.1556 4.96842 15.945 8.15934 15.945Z" fill="#34A853"/>
<path d="M3.51795 9.54936C3.34572 9.0533 3.24604 8.52176 3.24604 7.97257C3.24604 7.42332 3.34572 6.89184 3.50889 6.39577L3.50432 6.29013L0.954399 4.35498L0.87097 4.39376C0.318027 5.47449 0.000747681 6.68811 0.000747681 7.97257C0.000747681 9.25703 0.318027 10.4706 0.87097 11.5513L3.51795 9.54936Z" fill="#FBBC05"/>
<path d="M8.15934 3.08269C9.69131 3.08269 10.7247 3.72934 11.314 4.26974L13.6165 2.07286C12.2024 0.788397 10.3621 0 8.15934 0C4.96842 0 2.21264 1.78937 0.871033 4.39371L3.50895 6.39573C4.17075 4.47347 6.00188 3.08269 8.15934 3.08269Z" fill="#EB4335"/>
</g>
<defs>
<clipPath id="clip0_146_1078">
<rect width="16" height="16" fill="white"/>
</clipPath>
</defs>
</svg>
