<svg width="20" height="20" viewBox="0 0 20 20" fill="none" xmlns="http://www.w3.org/2000/svg">
<path d="M3.2853 16.25C2.9585 16.25 2.67648 16.1313 2.43923 15.8941C2.20198 15.6568 2.08336 15.3748 2.08336 15.048V4.95194C2.08336 4.62515 2.20198 4.34313 2.43923 4.10588C2.67648 3.86863 2.9585 3.75 3.2853 3.75H16.7147C17.0415 3.75 17.3235 3.86863 17.5608 4.10588C17.798 4.34313 17.9167 4.62515 17.9167 4.95194V15.048C17.9167 15.3748 17.798 15.6568 17.5608 15.8941C17.3235 16.1313 17.0415 16.25 16.7147 16.25H3.2853ZM16.9712 5.51279L10.3333 9.90542C10.2778 9.9332 10.2244 9.9575 10.1731 9.97833C10.1218 9.99917 10.0641 10.0096 10 10.0096C9.93591 10.0096 9.87821 9.99917 9.82692 9.97833C9.77564 9.9575 9.7249 9.9332 9.67469 9.90542L3.02886 5.51279V15.048C3.02886 15.1228 3.0529 15.1843 3.10098 15.2323C3.14907 15.2804 3.2105 15.3045 3.2853 15.3045H16.7147C16.7895 15.3045 16.8509 15.2804 16.899 15.2323C16.9471 15.1843 16.9712 15.1228 16.9712 15.048V5.51279ZM10 9.133L16.7837 4.6955H3.23719L10 9.133ZM3.02886 5.66663V5.01219V5.033V4.6955V5.02242V4.9954V5.66663Z" fill="#807676"/>
</svg>
