<svg width="15" height="18" viewBox="0 0 15 18" fill="none" xmlns="http://www.w3.org/2000/svg">
<path d="M1.1346 16.3651H5.02885V10.2401H9.9711V16.3651H13.8654V6.81709L7.49997 2.01902L1.1346 6.81387V16.3651ZM1.1346 17.4997C0.826116 17.4997 0.5599 17.3878 0.33595 17.1638C0.111983 16.9398 0 16.6736 0 16.3651V6.81709C0 6.63883 0.0384581 6.46995 0.115375 6.31047C0.192275 6.15098 0.305741 6.01922 0.455775 5.91517L6.82115 1.11712C6.92735 1.04275 7.03706 0.986976 7.15027 0.949792C7.26351 0.912626 7.38146 0.894043 7.50412 0.894043C7.62679 0.894043 7.74387 0.912626 7.85535 0.949792C7.96685 0.986976 8.07467 1.04275 8.1788 1.11712L14.5442 5.91517C14.6942 6.01922 14.8077 6.15098 14.8846 6.31047C14.9615 6.46995 15 6.63883 15 6.81709V16.3651C15 16.6736 14.888 16.9398 14.664 17.1638C14.44 17.3878 14.1738 17.4997 13.8654 17.4997H8.83652V11.3747H6.16342V17.4997H1.1346Z" fill="#FF7302"/>
</svg>
