<svg width="10" height="9" viewBox="0 0 10 9" fill="none" xmlns="http://www.w3.org/2000/svg">
<path d="M4.99518 8.91843C4.90833 8.91843 4.82138 8.90267 4.7343 8.87116C4.64722 8.83964 4.57059 8.79049 4.50443 8.72372L3.93558 8.20208C2.9375 7.28542 2.07372 6.40931 1.34424 5.57373C0.614746 4.73816 0.25 3.87742 0.25 2.99153C0.25 2.30575 0.48125 1.73158 0.94375 1.26903C1.40625 0.806475 1.97788 0.575195 2.65865 0.575195C3.04838 0.575195 3.44918 0.674075 3.86104 0.871833C4.2729 1.06959 4.65255 1.42905 4.99999 1.95021C5.37627 1.42905 5.76105 1.06959 6.15431 0.871833C6.54759 0.674075 6.94326 0.575195 7.34133 0.575195C8.02209 0.575195 8.59373 0.806475 9.05623 1.26903C9.51873 1.73158 9.74998 2.30575 9.74998 2.99153C9.74998 3.88704 9.37722 4.75499 8.6317 5.59537C7.88619 6.43575 7.03043 7.30306 6.0644 8.19728L5.48774 8.72666C5.42282 8.7924 5.34685 8.8408 5.25983 8.87185C5.1728 8.9029 5.08458 8.91843 4.99518 8.91843ZM4.75191 2.58288C4.49165 2.12006 4.17819 1.76429 3.81153 1.51557C3.44486 1.26685 3.06057 1.1425 2.65865 1.1425C2.12147 1.1425 1.68028 1.31638 1.33509 1.66413C0.989896 2.01188 0.8173 2.45568 0.8173 2.99552C0.8173 3.43132 0.952058 3.884 1.22158 4.35355C1.4911 4.8231 1.82972 5.28879 2.23744 5.75065C2.64515 6.2125 3.08747 6.66122 3.56439 7.0968C4.04131 7.53237 4.48619 7.93766 4.89901 8.31267C4.92786 8.34152 4.96152 8.35595 4.99999 8.35595C5.03845 8.35595 5.07211 8.34152 5.10096 8.31267C5.51379 7.9428 5.95866 7.53879 6.43559 7.10065C6.91251 6.6625 7.35433 6.21058 7.76106 5.74487C8.16779 5.27917 8.5064 4.81151 8.77691 4.34188C9.04742 3.87227 9.18268 3.42268 9.18268 2.99312C9.18268 2.45488 9.00868 2.01188 8.66068 1.66413C8.31268 1.31638 7.87248 1.1425 7.34008 1.1425C6.93066 1.1425 6.5447 1.26557 6.1822 1.51172C5.8197 1.75788 5.50319 2.11493 5.23268 2.58288C5.20063 2.63352 5.16441 2.67103 5.12403 2.69538C5.08364 2.71974 5.03893 2.73192 4.98989 2.73192C4.94085 2.73192 4.89486 2.71974 4.85191 2.69538C4.80896 2.67103 4.77563 2.63352 4.75191 2.58288Z" fill="#101010"/>
</svg>
