<svg width="19" height="22" viewBox="0 0 19 22" fill="none" xmlns="http://www.w3.org/2000/svg">
<path d="M9.49998 21.4999C8.18716 21.4999 6.95287 21.2502 5.7971 20.7508C4.64133 20.2515 3.63589 19.5743 2.78078 18.7191C1.92564 17.864 1.2484 16.8586 0.74905 15.7028C0.249683 14.547 0 13.3127 0 11.9999C0 10.2166 0.457375 8.57334 1.37213 7.07014C2.28686 5.56694 3.54101 4.40508 5.13458 3.58457C5.15124 3.78713 5.17464 3.9804 5.20477 4.16437C5.23491 4.34833 5.27048 4.54353 5.3115 4.74994C4.0115 5.50634 2.99035 6.52973 2.24805 7.82012C1.50575 9.1105 1.1346 10.5038 1.1346 11.9999C1.1346 14.3281 1.94678 16.3044 3.57113 17.9288C5.19549 19.5531 7.17178 20.3653 9.49998 20.3653C11.8282 20.3653 13.8045 19.5531 15.4288 17.9288C17.0532 16.3044 17.8654 14.3281 17.8654 11.9999C17.8654 10.4871 17.4926 9.08647 16.7471 7.79802C16.0016 6.50955 14.9705 5.49032 13.6538 4.74032C13.6949 4.53007 13.7346 4.33296 13.7731 4.14899C13.8115 3.96503 13.8391 3.77688 13.8558 3.58457C15.4493 4.40508 16.7051 5.56694 17.623 7.07014C18.541 8.57334 19 10.2166 19 11.9999C19 13.3127 18.7503 14.547 18.2509 15.7028C17.7516 16.8586 17.0743 17.864 16.2192 18.7191C15.3641 19.5743 14.3586 20.2515 13.2029 20.7508C12.0471 21.2502 10.8128 21.4999 9.49998 21.4999ZM9.49998 17.4999C7.97434 17.4999 6.67628 16.9646 5.60578 15.8941C4.53526 14.8236 4 13.5256 4 11.9999C4 11.1307 4.19007 10.3195 4.5702 9.56629C4.95032 8.81309 5.48524 8.1756 6.17498 7.65382C6.22883 7.8115 6.28523 7.98393 6.3442 8.17112C6.40317 8.35828 6.47817 8.56725 6.5692 8.79802C6.10638 9.2057 5.75158 9.68551 5.5048 10.2374C5.258 10.7894 5.1346 11.3769 5.1346 11.9999C5.1346 13.2115 5.55928 14.2419 6.40863 15.0913C7.25799 15.9406 8.28844 16.3653 9.49998 16.3653C10.7115 16.3653 11.742 15.9406 12.5913 15.0913C13.4407 14.2419 13.8654 13.2115 13.8654 11.9999C13.8654 11.3704 13.7404 10.7829 13.4904 10.2374C13.2404 9.69193 12.8839 9.21212 12.4211 8.79802C12.4891 8.58392 12.5365 8.43938 12.5634 8.36439C12.5904 8.28941 12.6692 8.04934 12.8 7.64419C13.4961 8.16599 14.0368 8.80509 14.4221 9.56149C14.8073 10.3179 15 11.1307 15 11.9999C15 13.5256 14.4647 14.8236 13.3942 15.8941C12.3237 16.9646 11.0256 17.4999 9.49998 17.4999ZM9.49998 0.432617C10.082 0.432617 10.5721 0.631659 10.9702 1.02974C11.3682 1.42781 11.5673 1.91787 11.5673 2.49992C11.5673 3.04992 11.5022 3.60568 11.3721 4.16722C11.2419 4.72875 10.9288 5.76208 10.4327 7.26722C10.3686 7.48902 10.2541 7.6778 10.0894 7.83357C9.92465 7.98933 9.72818 8.06722 9.49998 8.06722C9.27178 8.06722 9.0753 7.98933 8.91055 7.83357C8.74582 7.6778 8.6314 7.48902 8.5673 7.26722C8.07115 5.76208 7.75801 4.72875 7.62788 4.16722C7.49774 3.60568 7.43268 3.04992 7.43268 2.49992C7.43268 1.91787 7.63172 1.42781 8.0298 1.02974C8.42787 0.631659 8.91793 0.432617 9.49998 0.432617ZM9.49998 13.5672C9.06153 13.5672 8.69069 13.4156 8.38748 13.1124C8.08428 12.8092 7.93268 12.4384 7.93268 11.9999C7.93268 11.5615 8.08428 11.1906 8.38748 10.8874C8.69069 10.5842 9.06153 10.4326 9.49998 10.4326C9.93843 10.4326 10.3093 10.5842 10.6125 10.8874C10.9157 11.1906 11.0673 11.5615 11.0673 11.9999C11.0673 12.4384 10.9157 12.8092 10.6125 13.1124C10.3093 13.4156 9.93843 13.5672 9.49998 13.5672Z" fill="#101010" fill-opacity="0.5"/>
</svg>
