<svg width="20" height="20" viewBox="0 0 20 20" fill="none" xmlns="http://www.w3.org/2000/svg">
<path d="M4.95195 17.9167C4.62423 17.9167 4.34197 17.7983 4.10518 17.5615C3.8684 17.3247 3.75002 17.0424 3.75002 16.7147V8.37825C3.75002 8.04639 3.8684 7.7631 4.10518 7.52839C4.34197 7.29369 4.62423 7.17633 4.95195 7.17633H6.40227V5.26448C6.40227 4.266 6.75254 3.41677 7.45308 2.71677C8.15362 2.01676 9.00351 1.66675 10.0027 1.66675C11.002 1.66675 11.8509 2.01676 12.5497 2.71677C13.2484 3.41677 13.5977 4.266 13.5977 5.26448V7.17633H15.048C15.3758 7.17633 15.658 7.29369 15.8948 7.52839C16.1316 7.7631 16.25 8.04639 16.25 8.37825V16.7147C16.25 17.0424 16.1316 17.3247 15.8948 17.5615C15.658 17.7983 15.3758 17.9167 15.048 17.9167H4.95195ZM4.95195 16.9712H15.048C15.1228 16.9712 15.1843 16.9471 15.2323 16.899C15.2804 16.851 15.3045 16.7895 15.3045 16.7147V8.37825C15.3045 8.30346 15.2804 8.24202 15.2323 8.19394C15.1843 8.14585 15.1228 8.12181 15.048 8.12181H4.95195C4.87716 8.12181 4.81572 8.14585 4.76764 8.19394C4.71956 8.24202 4.69552 8.30346 4.69552 8.37825V16.7147C4.69552 16.7895 4.71956 16.851 4.76764 16.899C4.81572 16.9471 4.87716 16.9712 4.95195 16.9712ZM10.0035 13.9583C10.3922 13.9583 10.7241 13.8227 10.9992 13.5514C11.2743 13.2802 11.4118 12.9537 11.4118 12.5721C11.4118 12.2035 11.2731 11.8718 10.9957 11.577C10.7182 11.2821 10.3852 11.1346 9.99649 11.1346C9.6078 11.1346 9.2759 11.2821 9.00081 11.577C8.7257 11.8718 8.58814 12.207 8.58814 12.5825C8.58814 12.9581 8.72686 13.2813 9.00431 13.5521C9.28175 13.8229 9.61481 13.9583 10.0035 13.9583ZM7.34776 7.17633H12.6522V5.26448C12.6522 4.52774 12.3947 3.90152 11.8795 3.38581C11.3644 2.87009 10.7388 2.61223 10.0029 2.61223C9.26699 2.61223 8.64049 2.87009 8.12339 3.38581C7.60631 3.90152 7.34776 4.52774 7.34776 5.26448V7.17633Z" fill="#807676"/>
</svg>
