<svg width="19" height="19" viewBox="0 0 19 19" fill="none" xmlns="http://www.w3.org/2000/svg">
<path d="M4.3173 11.7654H10.5558C10.7168 11.7654 10.8516 11.7106 10.9602 11.6012C11.0687 11.4917 11.123 11.3558 11.123 11.1935C11.123 11.0312 11.0687 10.8968 10.9602 10.7904C10.8516 10.684 10.7168 10.6308 10.5558 10.6308H4.3173C4.15623 10.6308 4.02142 10.6855 3.91285 10.7949C3.80428 10.9044 3.75 11.0403 3.75 11.2026C3.75 11.365 3.80428 11.4993 3.91285 11.6057C4.02142 11.7121 4.15623 11.7654 4.3173 11.7654ZM4.3173 8.58265H14.6827C14.8437 8.58265 14.9785 8.52793 15.0871 8.41848C15.1957 8.30904 15.25 8.17315 15.25 8.0108C15.25 7.84847 15.1957 7.71409 15.0871 7.60768C14.9785 7.50128 14.8437 7.44808 14.6827 7.44808H4.3173C4.15623 7.44808 4.02142 7.50279 3.91285 7.61223C3.80428 7.72168 3.75 7.85758 3.75 8.01993C3.75 8.18226 3.80428 8.31663 3.91285 8.42305C4.02142 8.52945 4.15623 8.58265 4.3173 8.58265ZM4.3173 5.39998H14.6827C14.8437 5.39998 14.9785 5.34525 15.0871 5.2358C15.1957 5.12635 15.25 4.99046 15.25 4.82813C15.25 4.66578 15.1957 4.5314 15.0871 4.425C14.9785 4.31858 14.8437 4.26538 14.6827 4.26538H4.3173C4.15623 4.26538 4.02142 4.3201 3.91285 4.42955C3.80428 4.53898 3.75 4.67488 3.75 4.83723C3.75 4.99958 3.80428 5.13395 3.91285 5.24035C4.02142 5.34677 4.15623 5.39998 4.3173 5.39998ZM3.53845 15.5L1.22693 17.8115C1.00001 18.0384 0.738792 18.0906 0.443275 17.9682C0.147758 17.8458 0 17.625 0 17.3057V1.94232C0 1.55017 0.14235 1.21175 0.42705 0.927051C0.71175 0.642351 1.05018 0.5 1.44233 0.5H17.5576C17.9498 0.5 18.2882 0.642351 18.5729 0.927051C18.8576 1.21175 19 1.55017 19 1.94232V14.0576C19 14.4498 18.8576 14.7882 18.5729 15.0729C18.2882 15.3576 17.9498 15.5 17.5576 15.5H3.53845ZM1.82695 14.3654H17.5576C17.6346 14.3654 17.7051 14.3333 17.7692 14.2692C17.8333 14.2051 17.8654 14.1346 17.8654 14.0576V1.94232C17.8654 1.86539 17.8333 1.79487 17.7692 1.73075C17.7051 1.66665 17.6346 1.6346 17.5576 1.6346H1.44233C1.36539 1.6346 1.29487 1.66665 1.23075 1.73075C1.16665 1.79487 1.1346 1.86539 1.1346 1.94232V15.0577L1.82695 14.3654Z" fill="#101010" fill-opacity="0.5"/>
</svg>
