<svg width="12" height="12" viewBox="0 0 12 12" fill="none" xmlns="http://www.w3.org/2000/svg">
<path d="M3.40865 6.88268H6.52788C6.6084 6.88268 6.6758 6.85531 6.73009 6.80059C6.78437 6.74586 6.81151 6.67792 6.81151 6.59675C6.81151 6.51558 6.78437 6.44839 6.73009 6.39519C6.6758 6.34198 6.6084 6.31538 6.52788 6.31538H3.40865C3.32812 6.31538 3.26071 6.34274 3.20643 6.39746C3.15214 6.45218 3.125 6.52013 3.125 6.6013C3.125 6.68248 3.15214 6.74966 3.20643 6.80286C3.26071 6.85607 3.32812 6.88268 3.40865 6.88268ZM3.40865 5.29133H8.59133C8.67186 5.29133 8.73927 5.26396 8.79355 5.20924C8.84783 5.15452 8.87498 5.08658 8.87498 5.0054C8.87498 4.92423 8.84783 4.85705 8.79355 4.80384C8.73927 4.75064 8.67186 4.72404 8.59133 4.72404H3.40865C3.32812 4.72404 3.26071 4.7514 3.20643 4.80611C3.15214 4.86084 3.125 4.92879 3.125 5.00996C3.125 5.09113 3.15214 5.15832 3.20643 5.21153C3.26071 5.26473 3.32812 5.29133 3.40865 5.29133ZM3.40865 3.69999H8.59133C8.67186 3.69999 8.73927 3.67263 8.79355 3.6179C8.84783 3.56318 8.87498 3.49523 8.87498 3.41406C8.87498 3.33289 8.84783 3.2657 8.79355 3.2125C8.73927 3.15929 8.67186 3.13269 8.59133 3.13269H3.40865C3.32812 3.13269 3.26071 3.16005 3.20643 3.21478C3.15214 3.26949 3.125 3.33744 3.125 3.41861C3.125 3.49979 3.15214 3.56698 3.20643 3.62018C3.26071 3.67338 3.32812 3.69999 3.40865 3.69999ZM3.01923 8.74998L1.86346 9.90573C1.75 10.0192 1.6194 10.0453 1.47164 9.98411C1.32388 9.92292 1.25 9.8125 1.25 9.65284V1.97116C1.25 1.77509 1.32118 1.60588 1.46353 1.46353C1.60588 1.32118 1.77509 1.25 1.97116 1.25H10.0288C10.2249 1.25 10.3941 1.32118 10.5365 1.46353C10.6788 1.60588 10.75 1.77509 10.75 1.97116V8.02881C10.75 8.22489 10.6788 8.3941 10.5365 8.53645C10.3941 8.6788 10.2249 8.74998 10.0288 8.74998H3.01923ZM2.16348 8.18268H10.0288C10.0673 8.18268 10.1025 8.16665 10.1346 8.1346C10.1667 8.10254 10.1827 8.06728 10.1827 8.02881V1.97116C10.1827 1.9327 10.1667 1.89743 10.1346 1.86538C10.1025 1.83333 10.0673 1.8173 10.0288 1.8173H1.97116C1.9327 1.8173 1.89743 1.83333 1.86538 1.86538C1.83333 1.89743 1.8173 1.9327 1.8173 1.97116V8.52885L2.16348 8.18268Z" fill="#101010"/>
</svg>
