<svg width="18" height="18" viewBox="0 0 18 18" fill="none" xmlns="http://www.w3.org/2000/svg">
<path d="M6.97891 12.4479C5.28251 12.4479 3.84591 11.8598 2.66913 10.6835C1.49233 9.50726 0.903931 8.08226 0.903931 6.40854C0.903931 4.73484 1.49207 3.30985 2.66836 2.13356C3.84462 0.957281 5.27145 0.369141 6.94883 0.369141C8.62621 0.369141 10.0528 0.957281 11.2286 2.13356C12.4044 3.30985 12.9923 4.73493 12.9923 6.40881C12.9923 7.10928 12.8725 7.79124 12.6327 8.45469C12.393 9.11816 12.0462 9.71911 11.5923 10.2576L17.6808 16.3057C17.7923 16.4098 17.8497 16.5464 17.8529 16.7155C17.8561 16.8846 17.7988 17.0265 17.6808 17.1412C17.5629 17.2559 17.4209 17.3133 17.2551 17.3133C17.0892 17.3133 16.951 17.2543 16.8404 17.1364L10.777 11.0729C10.2795 11.5132 9.69943 11.8524 9.03673 12.0906C8.37403 12.3288 7.68809 12.4479 6.97891 12.4479ZM6.96353 11.3134C8.32945 11.3134 9.48663 10.8374 10.4351 9.88546C11.3835 8.93355 11.8578 7.77457 11.8578 6.40854C11.8578 5.04252 11.3835 3.88355 10.4351 2.93161C9.48663 1.9797 8.32945 1.50374 6.96353 1.50374C5.58906 1.50374 4.42461 1.9797 3.47018 2.93161C2.51575 3.88355 2.03853 5.04252 2.03853 6.40854C2.03853 7.77457 2.51575 8.93355 3.47018 9.88546C4.42461 10.8374 5.58906 11.3134 6.96353 11.3134Z" fill="#101010" fill-opacity="0.5"/>
</svg>
