<svg width="17" height="20" viewBox="0 0 17 20" fill="none" xmlns="http://www.w3.org/2000/svg">
<path d="M11.4963 16.3655C10.868 16.3655 10.3365 16.1463 9.90193 15.7079C9.46731 15.2695 9.25 14.7362 9.25 14.1079C9.25 13.4796 9.46919 12.9482 9.90758 12.5136C10.346 12.079 10.8793 11.8617 11.5076 11.8617C12.1358 11.8617 12.6673 12.0809 13.1019 12.5192C13.5365 12.9576 13.7538 13.491 13.7538 14.1192C13.7538 14.7475 13.5346 15.2789 13.0962 15.7136C12.6578 16.1482 12.1245 16.3655 11.4963 16.3655ZM1.44232 19.5001C1.05017 19.5001 0.71175 19.3577 0.42705 19.073C0.14235 18.7883 0 18.4499 0 18.0578V3.57709C0 3.18494 0.14235 2.84652 0.42705 2.56182C0.71175 2.27712 1.05017 2.13477 1.44232 2.13477H3.28848V1.01167C3.28848 0.836282 3.34723 0.687958 3.46475 0.566692C3.58227 0.445408 3.72899 0.384766 3.90493 0.384766C4.08796 0.384766 4.24091 0.445408 4.36378 0.566692C4.48664 0.687958 4.54808 0.836282 4.54808 1.01167V2.13477H12.4904V0.995142C12.4904 0.817958 12.5482 0.671933 12.6638 0.557066C12.7794 0.4422 12.9229 0.384766 13.0943 0.384766C13.2728 0.384766 13.4219 0.442916 13.5416 0.559216C13.6613 0.675533 13.7211 0.819941 13.7211 0.992441V2.13477H15.5576C15.9498 2.13477 16.2882 2.27712 16.5729 2.56182C16.8576 2.84652 17 3.18494 17 3.57709V18.0578C17 18.4499 16.8576 18.7883 16.5729 19.073C16.2882 19.3577 15.9498 19.5001 15.5576 19.5001H1.44232ZM1.44232 18.3655H15.5576C15.6346 18.3655 15.7051 18.3334 15.7692 18.2693C15.8333 18.2052 15.8654 18.1347 15.8654 18.0578V8.12514H1.1346V18.0578C1.1346 18.1347 1.16665 18.2052 1.23075 18.2693C1.29487 18.3334 1.36539 18.3655 1.44232 18.3655ZM1.1346 6.99057H15.8654V3.57709C15.8654 3.50016 15.8333 3.42963 15.7692 3.36552C15.7051 3.30142 15.6346 3.26937 15.5576 3.26937H1.44232C1.36539 3.26937 1.29487 3.30142 1.23075 3.36552C1.16665 3.42963 1.1346 3.50016 1.1346 3.57709V6.99057Z" fill="#101010" fill-opacity="0.5"/>
</svg>
